# xmcd CD database file
#
# Track frame offsets:
#	150
#	29398
#	54716
#	80495
#	103439
#	123361
#	143177
#	161908
#	194901
#	208209
#	231593
#	263351
#
# Disc length: 3744 seconds
#
# Revision: 0
# Processed by: cddbd v1.5.2PL0 Copyright (c) Steve Scherf et al.
# Submitted via: CDex 1.51
#
DISCID=bc0e9e0c
DTITLE=SonicAid by Dr Lee R Bartel - Reduce Road Rage (CLM DWN)
DYEAR=2008
DGENRE=New Age
TTITLE0=Shifting into Calm
TTITLE1=Easy Driver
TTITLE2=Commuters in Arms
TTITLE3=Giving Space
TTITLE4=Nothing Personal
TTITLE5=Whisper of the Wheel
TTITLE6=Embrace the Amber
TTITLE7=Yielding is a Virtue
TTITLE8=Taillight Harmony
TTITLE9=Cruise Control
TTITLE10=Taking the High Road
TTITLE11=Almost Home
EXTD=YEAR: 2008
EXTT0=
EXTT1=
EXTT2=
EXTT3=
EXTT4=
EXTT5=
EXTT6=
EXTT7=
EXTT8=
EXTT9=
EXTT10=
EXTT11=
PLAYORDER=
